<?xml version="1.0" encoding="UTF-8"?>
<svg width="26px" height="26px" viewBox="0 0 26 26" version="1.1" xmlns="http://www.w3.org/2000/svg" xmlns:xlink="http://www.w3.org/1999/xlink">
    <!-- Generator: Sketch 55.2 (78181) - https://sketchapp.com -->
    <title>图标</title>
    <desc>Created with Sketch.</desc>
    <g id="页面1" stroke="none" stroke-width="1" fill="none" fill-rule="evenodd">
        <g id="图标" transform="translate(1.000000, 1.000000)" fill-rule="nonzero" stroke="#D7DAE0" stroke-width="1.5">
            <path d="M10.5148529,23.3859648 L0.614152703,13.4851229 C-0.204695105,12.6662745 -0.204695105,11.3336918 0.614017935,10.5149782 L10.5148529,0.614136287 C11.3337007,-0.204712096 12.6662825,-0.204712096 13.4851303,0.614136287 L23.3859652,10.5148434 C24.2046783,11.3336918 24.2046783,12.6662745 23.3859652,13.4851229 L13.4851303,23.3859648 C12.6662825,24.2046784 11.3337007,24.2046784 10.5148529,23.3859648 Z" id="路径"></path>
            <path d="M19.0006768,21.100981 L4.9991884,21.100981 C3.84129215,21.100981 2.89901904,20.1587078 2.89901904,19.0008116 L2.89901904,4.9991884 C2.89901904,3.84129215 3.84129215,2.89901904 4.9991884,2.89901904 L19.0006768,2.89901904 C20.1585731,2.89901904 21.100981,3.84129215 21.100981,4.9991884 L21.100981,19.0006768 C21.100981,20.1585731 20.1587078,21.100981 19.0006768,21.100981 Z" id="路径"></path>
        </g>
    </g>
</svg>